<svg width="200" height="200" viewBox="0 0 200 200" xmlns="http://www.w3.org/2000/svg">
  <defs>
    <linearGradient id="greenGradient" x1="0%" y1="0%" x2="0%" y2="100%">
      <stop offset="0%" style="stop-color:#66BB6A;stop-opacity:1" />
      <stop offset="100%" style="stop-color:#A5D6A7;stop-opacity:1" />
    </linearGradient>
  </defs>
  <rect x="0" y="0" width="200" height="200" fill="url(#greenGradient)" />

  <path d="M50 75 C40 65 30 65 20 75 L20 85 C30 95 40 95 50 85 Z" fill="#283593"/>
  <path d="M150 75 C160 65 170 65 180 75 L180 85 C170 95 160 95 150 85 Z" fill="#283593"/>
  <rect x="50" y="75" width="100" height="10" rx="5" ry="5" fill="#283593"/>
  <rect x="50" y="85" width="100" height="10" rx="5" ry="5" fill="#283593"/>
  <rect x="40" y="70" width="120" height="30" rx="10" ry="10" fill="none" stroke="#283593" stroke-width="5"/>


  <circle cx="75" cy="85" r="18" fill="white"/>
  <path d="M75 67 L88.5 74.5 L88.5 95.5 L75 103 L61.5 95.5 L61.5 74.5 Z" fill="black"/>
  <path d="M75 67 L61.5 74.5 L61.5 95.5 L75 103 M75 67 L88.5 74.5 M61.5 74.5 L75 85 L88.5 74.5 M61.5 95.5 L75 85 L88.5 95.5" stroke="black" stroke-width="1" fill="none"/>

  <circle cx="68" cy="78" r="4" fill="rgba(255,255,255,0.7)"/>

  <text x="100" y="145" font-family="Arial, sans-serif" font-size="28" font-weight="bold" fill="#283593" text-anchor="middle">efootball</text>
  <text x="100" y="170" font-family="Arial, sans-serif" font-size="20" fill="#00BCD4" text-anchor="middle">analyzer</text>
</svg>